<?xml version="1.0" encoding="UTF-8" standalone="no"?>
<!-- Generator: Adobe Illustrator 22.0.1, SVG Export Plug-In . SVG Version: 6.00 Build 0)  -->

<svg
   xmlns:dc="http://purl.org/dc/elements/1.1/"
   xmlns:cc="http://creativecommons.org/ns#"
   xmlns:rdf="http://www.w3.org/1999/02/22-rdf-syntax-ns#"
   xmlns:svg="http://www.w3.org/2000/svg"
   xmlns="http://www.w3.org/2000/svg"
   xmlns:sodipodi="http://sodipodi.sourceforge.net/DTD/sodipodi-0.dtd"
   xmlns:inkscape="http://www.inkscape.org/namespaces/inkscape"
   version="1.1"
   id="Layer_1"
   x="0px"
   y="0px"
   viewBox="0 0 233.37092 39.844683"
   xml:space="preserve"
   inkscape:version="0.92.5 (2060ec1f9f, 2020-04-08)"
   sodipodi:docname="mw_lr_landscape_small_black.svg"
   width="233.37091"
   height="39.844685"><metadata
     id="metadata73"><rdf:RDF><cc:Work
         rdf:about=""><dc:format>image/svg+xml</dc:format><dc:type
           rdf:resource="http://purl.org/dc/dcmitype/StillImage" /><dc:title></dc:title></cc:Work></rdf:RDF></metadata><defs
     id="defs71" /><sodipodi:namedview
     pagecolor="#ffffff"
     bordercolor="#666666"
     borderopacity="1"
     objecttolerance="10"
     gridtolerance="10"
     guidetolerance="10"
     inkscape:pageopacity="0"
     inkscape:pageshadow="2"
     inkscape:window-width="3768"
     inkscape:window-height="2096"
     id="namedview69"
     showgrid="false"
     fit-margin-top="0"
     fit-margin-left="0"
     fit-margin-right="0"
     fit-margin-bottom="0"
     inkscape:zoom="4.4850931"
     inkscape:cx="139.92411"
     inkscape:cy="-10.144068"
     inkscape:window-x="72"
     inkscape:window-y="27"
     inkscape:window-maximized="1"
     inkscape:current-layer="g5" /><style
     type="text/css"
     id="style3">
	.st0{fill:#FFFFFF;}
</style><g
     id="g5"
     transform="translate(-181.02909,-401.77766)"><path
       class="st0"
       d="m 219.1,414.5 0,0 c -0.2,-0.5 -0.4,-1 -0.7,-1.5 -0.3,0.2 -0.6,0.3 -0.8,0.6 -0.9,0.9 -1.2,2.2 -0.8,3.3 l 0,0 c 1.7,5.7 0.3,12.2 -4.2,16.8 -5.3,5.3 -13.2,6.3 -19.5,3.1 -1,0.7 -2.4,0.7 -3.4,-0.1 0.6,-0.1 1.3,-0.4 1.8,-0.9 1.3,-1.3 1.3,-3.4 0,-4.7 -1.3,-1.3 -3.4,-1.3 -4.7,0 -0.3,0.3 -1.4,1.6 -0.6,3.5 0.3,0.8 0.9,1.6 2,2.5 0,0 0,0 0.1,0.1 7.8,6.3 19.2,5.9 26.4,-1.4 5.7,-5.9 7.2,-14.2 4.4,-21.3 l 0,0 z"
       id="path7"
       inkscape:connector-curvature="0"
       style="fill:#000000" /><path
       class="st0"
       d="m 184.7,426.5 c -1.7,-5.7 -0.3,-12.2 4.2,-16.8 5.3,-5.3 13.2,-6.3 19.5,-3.1 1,-0.7 2.4,-0.6 3.4,0.1 -0.6,0.1 -1.3,0.4 -1.8,0.9 -1.3,1.3 -1.3,3.4 0,4.7 1.3,1.3 3.4,1.3 4.7,0 0.3,-0.3 1.4,-1.6 0.6,-3.5 -0.3,-0.8 -0.9,-1.6 -2,-2.5 0,0 0,0 -0.1,-0.1 -7.8,-6.3 -19.2,-5.9 -26.4,1.4 -5.7,5.7 -7.2,14.1 -4.4,21.2 l 0,0 c 0.2,0.5 0.4,1 0.7,1.5 0.3,-0.2 0.6,-0.3 0.8,-0.6 0.8,-0.8 1.1,-2 0.8,-3.2 l 0,0 0,0 z"
       id="path9"
       inkscape:connector-curvature="0"
       style="fill:#000000" /><polygon
       class="st0"
       points="243.3,440.1 243.3,441.2 236.2,441.2 236.2,426 236.2,426 237.3,426 237.3,440.1 "
       id="polygon11"
       style="fill:#000000" /><path
       class="st0"
       d="m 249.1,434.1 c 1.5,0 2.7,0.6 3.2,1.2 l 0,-1.7 c 0,-1.9 -1.2,-2.9 -3.1,-2.9 -1.5,0 -2.7,0.6 -3.5,1 l -0.5,-0.8 c 0.6,-0.4 2.1,-1.2 4,-1.2 2.8,0 4.1,1.6 4.1,4 l 0,7.5 -0.9,0 -0.2,-1.1 c -0.6,0.7 -1.6,1.3 -3.2,1.3 -2.5,0 -4.3,-1.6 -4.3,-3.7 0.1,-2.1 1.9,-3.6 4.4,-3.6 l 0,0 z m 0.1,6.4 c 1.9,0 3.2,-1.2 3.2,-2.7 0,-1.6 -1.3,-2.7 -3.2,-2.7 -2,0 -3.2,1.2 -3.2,2.7 -0.1,1.4 1.2,2.7 3.2,2.7 l 0,0 z"
       id="path13"
       inkscape:connector-curvature="0"
       style="fill:#000000" /><path
       class="st0"
       d="m 265.5,433.9 0,7.3 -1.1,0 0,-7.2 c 0,-2.1 -1.3,-3.3 -3,-3.3 -2,0 -3.4,1.5 -3.4,3.7 l 0,6.8 -1.1,0 0,-11.2 1.1,0 0,1.8 c 0.6,-1.1 1.9,-2.1 3.5,-2.1 2.3,0 4,1.6 4,4.2 l 0,0 z"
       id="path15"
       inkscape:connector-curvature="0"
       style="fill:#000000" /><path
       class="st0"
       d="m 278.7,441.2 -1.1,0 0,-2.1 c -0.3,0.4 -1.5,2.4 -4.2,2.4 -3.2,0 -5.5,-2.4 -5.5,-5.9 0,-3.5 2.2,-5.9 5.4,-5.9 2.5,0 3.9,1.7 4.3,2.4 l 0,-6.5 1.1,0 0,15.6 0,0 z m -5.3,-10.5 c -2.4,0 -4.3,2 -4.3,4.9 0,2.9 1.9,4.8 4.3,4.8 2.6,0 4.3,-2.2 4.3,-4.8 0,-3.1 -2,-4.9 -4.3,-4.9 l 0,0 z"
       id="path17"
       inkscape:connector-curvature="0"
       style="fill:#000000" /><path
       class="st0"
       d="m 290.7,432.3 c -0.4,-0.5 -1.7,-1.6 -3.7,-1.6 -2.6,0 -4.5,2.1 -4.5,4.9 0,2.7 2,4.9 4.5,4.9 2.1,0 3.3,-1.3 3.7,-1.7 l 0.4,1 c -0.3,0.5 -1.8,1.8 -4.1,1.8 -3.3,0 -5.6,-2.6 -5.6,-5.9 0,-3.3 2.4,-5.9 5.6,-5.9 2.2,0 3.6,1.1 4.1,1.7 l -0.4,0.8 0,0 z"
       id="path19"
       inkscape:connector-curvature="0"
       style="fill:#000000" /><path
       class="st0"
       d="m 297.4,434.1 c 1.5,0 2.7,0.6 3.2,1.2 l 0,-1.7 c 0,-1.9 -1.2,-2.9 -3.1,-2.9 -1.5,0 -2.7,0.6 -3.5,1 l -0.5,-0.8 c 0.6,-0.4 2.1,-1.2 4,-1.2 2.8,0 4.1,1.6 4.1,4 l 0,7.5 -0.9,0 -0.2,-1.1 c -0.6,0.7 -1.6,1.3 -3.2,1.3 -2.5,0 -4.3,-1.6 -4.3,-3.7 0.1,-2.1 1.9,-3.6 4.4,-3.6 l 0,0 z m 0.1,6.4 c 1.9,0 3.2,-1.2 3.2,-2.7 0,-1.6 -1.3,-2.7 -3.2,-2.7 -2,0 -3.2,1.2 -3.2,2.7 -0.1,1.4 1.2,2.7 3.2,2.7 l 0,0 z"
       id="path21"
       inkscape:connector-curvature="0"
       style="fill:#000000" /><path
       class="st0"
       d="m 309.7,430.7 c -2.7,0 -3.5,2.2 -3.5,4.5 l 0,5.9 -1.1,0 0,-11.1 1.1,0 0,2 c 0.3,-1.1 1.6,-2.3 3.5,-2.3 l 0,1 0,0 z"
       id="path23"
       inkscape:connector-curvature="0"
       style="fill:#000000" /><path
       class="st0"
       d="m 316.3,429.7 c 3.2,0 5.3,2.4 5.3,5.6 l 0,0.5 -9.6,0 c 0,3 1.9,4.7 4.6,4.7 2.1,0 3.2,-1 3.9,-1.9 l 0.7,0.5 c -0.7,1.2 -2.2,2.4 -4.6,2.4 -3.3,0 -5.7,-2.4 -5.7,-5.9 0,-3.7 2.5,-5.9 5.4,-5.9 l 0,0 z m 4.1,5.1 c -0.1,-2.8 -2.1,-4.1 -4.2,-4.1 -2,0 -4,1.4 -4.2,4.1 l 8.4,0 0,0 z"
       id="path25"
       inkscape:connector-curvature="0"
       style="fill:#000000" /><path
       class="st0"
       d="m 330.6,426 3.5,0 c 2.9,0 4.5,1.9 4.5,4.1 0,1.9 -1.1,3.3 -2.8,3.9 l 3.8,7.1 -1.2,0 -3.7,-6.9 -3,0 0,6.9 -1.1,0 0,-15.1 0,0 z m 3.6,7.3 c 2,0 3.3,-1.2 3.3,-3.1 0,-1.8 -1.2,-3.1 -3.4,-3.1 l -2.4,0 0,6.2 2.5,0 0,0 z"
       id="path27"
       inkscape:connector-curvature="0"
       style="fill:#000000" /><path
       class="st0"
       d="m 346.2,429.7 c 3.2,0 5.3,2.4 5.3,5.6 l 0,0.5 -9.5,0 c 0,3 1.9,4.7 4.6,4.7 2.1,0 3.2,-1 3.9,-1.9 l 0.7,0.5 c -0.7,1.2 -2.2,2.4 -4.6,2.4 -3.3,0 -5.7,-2.4 -5.7,-5.9 -0.1,-3.7 2.5,-5.9 5.3,-5.9 l 0,0 z m 4.2,5.1 c -0.1,-2.8 -2.1,-4.1 -4.2,-4.1 -2,0 -4,1.4 -4.2,4.1 l 8.4,0 0,0 z"
       id="path29"
       inkscape:connector-curvature="0"
       style="fill:#000000" /><path
       class="st0"
       d="m 354.4,438.5 c 0.4,1 1.2,2 2.9,2 1.3,0 2.4,-0.8 2.4,-2.2 0,-3 -5.8,-2 -5.8,-5.7 0,-1.8 1.4,-2.9 3.3,-2.9 2.1,0 3,1.3 3.3,2.2 l -0.9,0.3 c -0.3,-0.7 -0.9,-1.6 -2.5,-1.6 -1.2,0 -2.2,0.7 -2.2,1.9 0,2.9 5.8,1.9 5.8,5.7 0,1.9 -1.5,3.2 -3.5,3.2 -2.4,0 -3.3,-1.4 -3.8,-2.6 l 1,-0.3 0,0 z"
       id="path31"
       inkscape:connector-curvature="0"
       style="fill:#000000" /><path
       class="st0"
       d="m 368.3,429.7 c 3.2,0 5.3,2.4 5.3,5.6 l 0,0.5 -9.6,0 c 0,3 1.9,4.7 4.6,4.7 2.1,0 3.2,-1 3.9,-1.9 l 0.7,0.5 c -0.7,1.2 -2.2,2.4 -4.6,2.4 -3.3,0 -5.7,-2.4 -5.7,-5.9 0,-3.7 2.5,-5.9 5.4,-5.9 l 0,0 z m 4.1,5.1 c -0.1,-2.8 -2.1,-4.1 -4.2,-4.1 -2,0 -4,1.4 -4.2,4.1 l 8.4,0 0,0 z"
       id="path33"
       inkscape:connector-curvature="0"
       style="fill:#000000" /><path
       class="st0"
       d="m 379.9,434.1 c 1.5,0 2.7,0.6 3.2,1.2 l 0,-1.7 c 0,-1.9 -1.2,-2.9 -3.1,-2.9 -1.5,0 -2.7,0.6 -3.5,1 l -0.5,-0.8 c 0.6,-0.4 2.1,-1.2 4,-1.2 2.8,0 4.1,1.6 4.1,4 l 0,7.5 -0.9,0 -0.2,-1.1 c -0.6,0.7 -1.6,1.3 -3.2,1.3 -2.5,0 -4.3,-1.6 -4.3,-3.7 0.1,-2.1 1.9,-3.6 4.4,-3.6 l 0,0 z m 0.1,6.4 c 1.9,0 3.2,-1.2 3.2,-2.7 0,-1.6 -1.3,-2.7 -3.2,-2.7 -2,0 -3.2,1.2 -3.2,2.7 -0.1,1.4 1.2,2.7 3.2,2.7 l 0,0 z"
       id="path35"
       inkscape:connector-curvature="0"
       style="fill:#000000" /><path
       class="st0"
       d="m 392.2,430.7 c -2.7,0 -3.5,2.2 -3.5,4.5 l 0,5.9 -1.1,0 0,-11.1 1.1,0 0,2 c 0.3,-1.1 1.6,-2.3 3.5,-2.3 l 0,1 0,0 z"
       id="path37"
       inkscape:connector-curvature="0"
       style="fill:#000000" /><path
       class="st0"
       d="m 402.8,432.3 c -0.4,-0.5 -1.7,-1.6 -3.7,-1.6 -2.6,0 -4.5,2.1 -4.5,4.9 0,2.7 2,4.9 4.5,4.9 2.1,0 3.3,-1.3 3.7,-1.7 l 0.4,1 c -0.3,0.5 -1.8,1.8 -4.1,1.8 -3.3,0 -5.6,-2.6 -5.6,-5.9 0,-3.3 2.4,-5.9 5.6,-5.9 2.2,0 3.6,1.1 4.1,1.7 l -0.4,0.8 0,0 z"
       id="path39"
       inkscape:connector-curvature="0"
       style="fill:#000000" /><path
       class="st0"
       d="m 414.4,433.9 0,7.3 -1.1,0 0,-7.2 c 0,-2.1 -1.3,-3.3 -3,-3.3 -2,0 -3.4,1.5 -3.4,3.7 l 0,6.8 -1.1,0 0,-15.6 1.1,0 0,6.2 c 0.6,-1.1 1.9,-2.1 3.5,-2.1 2.3,0 4,1.6 4,4.2 l 0,0 z"
       id="path41"
       inkscape:connector-curvature="0"
       style="fill:#000000" /><polygon
       class="st0"
       points="252.2,417.8 249.9,417.8 249.9,405.9 245.3,416.5 242.9,416.5 238.3,405.9 238.3,417.8 235.9,417.8 235.9,402.4 239.1,402.4 244.1,413.7 244.1,413.7 249.1,402.4 252.2,402.4 "
       id="polygon43"
       style="fill:#000000" /><path
       class="st0"
       d="m 259.4,410.5 c 1.3,0 2.3,0.4 2.8,0.8 l 0,-1.1 c 0,-1.3 -0.9,-2.1 -2.5,-2.1 -1.3,0 -2.4,0.4 -3.2,0.9 l -0.9,-1.7 c 0.9,-0.6 2.5,-1.3 4.4,-1.3 3.4,0 4.6,1.9 4.6,4.4 l 0,7.4 -2.1,0 -0.2,-0.9 c -0.6,0.7 -1.5,1.1 -3,1.1 -2.4,0 -4.3,-1.5 -4.3,-3.8 -0.1,-2.1 1.7,-3.7 4.4,-3.7 l 0,0 z m 0.4,5.7 c 1.4,0 2.4,-0.8 2.4,-2 0,-1.2 -1,-2 -2.4,-2 -1.5,0 -2.4,0.8 -2.4,2 -0.1,1.2 0.9,2 2.4,2 l 0,0 z"
       id="path45"
       inkscape:connector-curvature="0"
       style="fill:#000000" /><path
       class="st0"
       d="m 277.1,410.9 0,6.9 -2.4,0 0,-7.1 c 0,-1.6 -1,-2.5 -2.3,-2.5 -1.5,0 -2.5,1.1 -2.5,2.7 l 0,7 -2.4,0 0,-11.5 2.4,0 0,1.5 c 0.5,-0.9 1.7,-1.8 3.2,-1.8 2.9,-0.1 4,2.3 4,4.8 l 0,0 z"
       id="path47"
       inkscape:connector-curvature="0"
       style="fill:#000000" /><path
       class="st0"
       d="m 283.8,410.5 c 1.3,0 2.3,0.4 2.8,0.8 l 0,-1.1 c 0,-1.3 -0.9,-2.1 -2.5,-2.1 -1.3,0 -2.4,0.4 -3.2,0.9 l -0.9,-1.7 c 0.9,-0.6 2.5,-1.3 4.4,-1.3 3.4,0 4.6,1.9 4.6,4.4 l 0,7.4 -2.1,0 -0.2,-0.9 c -0.6,0.7 -1.5,1.1 -3,1.1 -2.4,0 -4.3,-1.5 -4.3,-3.8 -0.1,-2.1 1.7,-3.7 4.4,-3.7 l 0,0 z m 0.4,5.7 c 1.4,0 2.4,-0.8 2.4,-2 0,-1.2 -1,-2 -2.5,-2 -1.5,0 -2.4,0.8 -2.4,2 0,1.2 1,2 2.5,2 l 0,0 z"
       id="path49"
       inkscape:connector-curvature="0"
       style="fill:#000000" /><path
       class="st0"
       d="m 295.6,410.5 c 1.3,0 2.3,0.4 2.8,0.8 l 0,-1.1 c 0,-1.3 -0.9,-2.1 -2.4,-2.1 -1.3,0 -2.4,0.4 -3.2,0.9 l -0.9,-1.7 c 0.9,-0.6 2.5,-1.3 4.4,-1.3 3.4,0 4.6,1.9 4.6,4.4 l 0,7.4 -2.1,0 -0.2,-0.9 c -0.6,0.7 -1.5,1.1 -3,1.1 -2.4,0 -4.3,-1.5 -4.3,-3.8 -0.1,-2.1 1.7,-3.7 4.3,-3.7 l 0,0 z m 0.4,5.7 c 1.4,0 2.4,-0.8 2.4,-2 0,-1.2 -1,-2 -2.5,-2 -1.5,0 -2.4,0.8 -2.4,2 0.1,1.2 1.1,2 2.5,2 l 0,0 z"
       id="path51"
       inkscape:connector-curvature="0"
       style="fill:#000000" /><polygon
       class="st0"
       points="310.4,406.3 313.1,406.3 308.5,411.5 313.4,417.8 310.6,417.8 306.1,411.8 306.1,417.8 303.7,417.8 303.7,401.9 303.7,401.9 306.1,401.9 306.1,411.2 "
       id="polygon53"
       style="fill:#000000" /><path
       class="st0"
       d="m 316.4,402 c 0.8,0 1.5,0.7 1.5,1.5 0,0.8 -0.7,1.5 -1.5,1.5 -0.8,0 -1.5,-0.7 -1.5,-1.5 0,-0.9 0.6,-1.5 1.5,-1.5 l 0,0 z m -1.2,4.3 2.4,0 0,11.5 -2.4,0 0,-11.5 0,0 z"
       id="path55"
       inkscape:connector-curvature="0"
       style="fill:#000000" /><polygon
       class="st0"
       points="325.5,402.4 328.2,402.4 331.3,414.8 334.8,402.4 337.1,402.4 340.5,414.8 343.7,402.4 346.3,402.4 342,417.8 339.3,417.8 335.9,406.1 335.9,406.1 332.6,417.8 329.8,417.8 "
       id="polygon57"
       style="fill:#000000" /><path
       class="st0"
       d="m 357.3,410.9 0,6.9 -2.4,0 0,-7.1 c 0,-1.6 -1,-2.5 -2.3,-2.5 -1.5,0 -2.5,1.1 -2.5,2.7 l 0,7 -2.4,0 0,-16 2.4,0 0,5.9 c 0.5,-0.9 1.7,-1.8 3.2,-1.8 3,0 4,2.4 4,4.9 l 0,0 z"
       id="path59"
       inkscape:connector-curvature="0"
       style="fill:#000000" /><path
       class="st0"
       d="m 365.3,406 c 3.5,0 5.5,2.4 5.5,6 0,0.2 0,0.4 0,0.6 l -8.7,0 c 0,2.1 1.5,3.4 3.6,3.4 1.7,0 2.7,-1 3.2,-1.6 l 1.6,1.2 c -0.6,0.9 -2.1,2.5 -4.8,2.5 -3.6,0 -6,-2.5 -6,-6 0,-3.5 2.4,-6.1 5.6,-6.1 l 0,0 z m 3.1,5 c -0.1,-1.9 -1.4,-3 -3.1,-3 -1.7,0 -2.9,1.1 -3.1,3 l 6.2,0 0,0 z"
       id="path61"
       inkscape:connector-curvature="0"
       style="fill:#000000" /><path
       class="st0"
       d="m 382.8,410.9 0,6.9 -2.4,0 0,-7.1 c 0,-1.6 -1,-2.5 -2.3,-2.5 -1.5,0 -2.5,1.1 -2.5,2.7 l 0,7 -2.4,0 0,-11.5 2.4,0 0,1.5 c 0.5,-0.9 1.7,-1.8 3.2,-1.8 3,-0.1 4,2.3 4,4.8 l 0,0 z"
       id="path63"
       inkscape:connector-curvature="0"
       style="fill:#000000" /><path
       class="st0"
       d="m 385.8,413.3 0,-6.9 2.4,0 0,7.1 c 0,1.6 1,2.5 2.3,2.5 1.5,0 2.5,-1.1 2.5,-2.7 l 0,-7 2.4,0 0,11.5 -2.4,0 0,-1.5 c -0.5,0.9 -1.7,1.8 -3.2,1.8 -3,0 -4,-2.3 -4,-4.8 l 0,0 z"
       id="path65"
       inkscape:connector-curvature="0"
       style="fill:#000000" /><path
       class="st0"
       d="m 402.2,410.5 c 1.3,0 2.3,0.4 2.8,0.8 l 0,-1.1 c 0,-1.3 -0.9,-2.1 -2.5,-2.1 -1.3,0 -2.4,0.4 -3.2,0.9 l -0.9,-1.7 c 0.9,-0.6 2.5,-1.3 4.4,-1.3 3.4,0 4.6,1.9 4.6,4.4 l 0,7.4 -2.1,0 -0.3,-0.8 c -0.6,0.7 -1.5,1.1 -3,1.1 -2.4,0 -4.3,-1.5 -4.3,-3.8 0,-2.2 1.8,-3.8 4.5,-3.8 l 0,0 z m 0.4,5.7 c 1.4,0 2.4,-0.8 2.4,-2 0,-1.2 -1,-2 -2.5,-2 -1.5,0 -2.4,0.8 -2.4,2 0,1.2 1,2 2.5,2 l 0,0 z"
       id="path67"
       inkscape:connector-curvature="0"
       style="fill:#000000" /></g></svg>